<?xml version="1.0" encoding="utf-8"?>
<!-- Generator: Adobe Illustrator 21.0.0, SVG Export Plug-In . SVG Version: 6.00 Build 0)  -->
<svg version="1.1" id="Capa_1" xmlns="http://www.w3.org/2000/svg" xmlns:xlink="http://www.w3.org/1999/xlink" x="0px" y="0px"
	 viewBox="0 0 145.3 73.3" style="enable-background:new 0 0 145.3 73.3;" xml:space="preserve">
<g>
	
		<line style="fill:none;stroke:#1E1E1E;stroke-width:5.0121;stroke-linecap:round;stroke-linejoin:round;stroke-miterlimit:10;" x1="2.8" y1="70.5" x2="142.6" y2="70.5"/>
	
		<path style="fill:#1E1E1E;stroke:#1E1E1E;stroke-width:0.1978;stroke-linecap:round;stroke-linejoin:round;stroke-miterlimit:10;" d="
		M30.2,39.8c0,0-8.7,18.4,1.8,31.5c1.5,1.9,79,2,80.5,0.2c10.9-13.2,2.7-31.7,2.7-31.7s4.1-8.2,3.5-27.4c0,0-23.3-2.6-35.4,1.9
		c0,0-12.9-2.1-21.6,0c0,0-20.3-3.2-35.2-2.1C26.5,12.2,26,24.1,30.2,39.8z"/>
	
		<path style="fill:#B7B7B7;stroke:#B7B7B7;stroke-width:0.2638;stroke-linecap:round;stroke-linejoin:round;stroke-miterlimit:10;" d="
		M36,32.9c0,0,7.3-8.9,9.6-10.3c0,0-7.7-2.7-11-2.2C34.6,20.5,33,21.4,36,32.9z"/>
	
		<path style="fill:#B7B7B7;stroke:#B7B7B7;stroke-width:0.2638;stroke-linecap:round;stroke-linejoin:round;stroke-miterlimit:10;" d="
		M108.2,31.5c0,0-7.4-9.2-9.7-10.6c0,0,7.7-3.1,11-2.5C109.5,18.5,111.4,19.7,108.2,31.5z"/>
	
		<polygon style="fill:none;stroke:#B7B7B7;stroke-width:5.0121;stroke-linecap:round;stroke-linejoin:round;stroke-miterlimit:10;" points="
		77.9,62.5 68.1,62.7 73,66.9 	"/>
	<ellipse style="fill:#0F0F0F;" cx="54.1" cy="52.2" rx="7.7" ry="0.8"/>
	<ellipse style="fill:#0F0F0F;" cx="95.4" cy="52.2" rx="7.7" ry="0.8"/>
	<path style="fill:#0F0F0F;" d="M99.1,52.2c0,0.2-0.4,0.5-1.1,0.6c-0.7,0.2-5.2,0.2-6,0c-0.6-0.2-0.9-0.4-0.9-0.6s0.4-0.4,0.9-0.6
		c0.7-0.2,5.2-0.2,6,0C98.7,51.7,99.1,51.9,99.1,52.2z"/>
	<ellipse style="fill:#0F0F0F;" cx="97.4" cy="51.7" rx="2.3" ry="0.2"/>
	<path style="fill:#0F0F0F;" d="M58.6,52.2c0,0.2-0.3,0.4-0.9,0.6c-0.7,0.2-5.3,0.2-6,0.1c-0.7-0.2-1.1-0.4-1.1-0.7s0.4-0.5,1.1-0.7
		c0.7-0.2,5.2-0.2,6,0.1C58.3,51.7,58.6,51.9,58.6,52.2z"/>
	<ellipse style="fill:#0F0F0F;" cx="56.9" cy="51.7" rx="2.3" ry="0.2"/>
</g>
</svg>
