<?xml version="1.0" encoding="utf-8"?>
<!-- Generator: Adobe Illustrator 21.0.0, SVG Export Plug-In . SVG Version: 6.00 Build 0)  -->
<svg version="1.1" id="Capa_1" xmlns="http://www.w3.org/2000/svg" xmlns:xlink="http://www.w3.org/1999/xlink" x="0px" y="0px"
	 viewBox="0 0 145.3 73.3" style="enable-background:new 0 0 145.3 73.3;" xml:space="preserve">
<g>
	
		<line style="fill:none;stroke:#1E1E1E;stroke-width:5.0121;stroke-linecap:round;stroke-linejoin:round;stroke-miterlimit:10;" x1="2.8" y1="70.5" x2="142.7" y2="70.5"/>
	
		<path style="fill:#1E1E1E;stroke:#1E1E1E;stroke-width:0.1978;stroke-linecap:round;stroke-linejoin:round;stroke-miterlimit:10;" d="
		M30.2,39.8c0,0-8.7,18.4,1.8,31.5c1.5,1.9,79,2,80.5,0.2c10.9-13.2,2.7-31.7,2.7-31.7s3-11.3,0.6-30.4c0,0-17.9-1.9-32.4,4.9
		c0,0-12.9-2.1-21.6,0c0,0-17.2-6.3-32.2-5.1C29.7,9.1,26.1,24.1,30.2,39.8z"/>
	
		<path style="fill:#B7B7B7;stroke:#B7B7B7;stroke-width:0.2638;stroke-linecap:round;stroke-linejoin:round;stroke-miterlimit:10;" d="
		M35.9,32.1c0,0,9.9-9.4,12.8-10.7c0,0-8.6-4.3-12.6-4.2C36.1,17.3,34,18.1,35.9,32.1z"/>
	
		<path style="fill:#B7B7B7;stroke:#B7B7B7;stroke-width:0.2638;stroke-linecap:round;stroke-linejoin:round;stroke-miterlimit:10;" d="
		M109.1,31c0,0-9.7-9.6-12.6-10.9c0,0,8.4-4.5,12.4-4.3C108.9,15.8,111.3,17,109.1,31z"/>
	
		<polygon style="fill:none;stroke:#B7B7B7;stroke-width:5.0121;stroke-linecap:round;stroke-linejoin:round;stroke-miterlimit:10;" points="
		78,62.4 68.2,62.7 73.1,66.8 	"/>
	<ellipse style="fill:#FFFFFF;" cx="54.2" cy="52.2" rx="7.7" ry="0.8"/>
	<ellipse style="fill:#FFFFFF;" cx="95.5" cy="52.2" rx="7.7" ry="0.8"/>
	<path d="M99.2,52.2c0,0.2-0.4,0.5-1.1,0.6c-0.7,0.2-5.2,0.2-6,0c-0.6-0.2-0.9-0.4-0.9-0.6s0.4-0.4,0.9-0.6c0.7-0.2,5.2-0.2,6,0
		C98.8,51.7,99.2,51.9,99.2,52.2z"/>
	<ellipse style="fill:#FFFFFF;" cx="97.5" cy="51.7" rx="2.3" ry="0.2"/>
	<path d="M58.7,52.2c0,0.2-0.3,0.4-0.9,0.6c-0.7,0.2-5.3,0.2-6,0.1c-0.7-0.2-1.1-0.4-1.1-0.7s0.4-0.5,1.1-0.7s5.2-0.2,6,0.1
		C58.4,51.7,58.7,51.9,58.7,52.2z"/>
	<ellipse style="fill:#FFFFFF;" cx="57" cy="51.7" rx="2.3" ry="0.2"/>
</g>
</svg>
