<?xml version="1.0" encoding="utf-8"?>
<!-- Generator: Adobe Illustrator 21.0.0, SVG Export Plug-In . SVG Version: 6.00 Build 0)  -->
<svg version="1.1" id="Capa_1" xmlns="http://www.w3.org/2000/svg" xmlns:xlink="http://www.w3.org/1999/xlink" x="0px" y="0px"
	 viewBox="0 0 145.3 73.3" style="enable-background:new 0 0 145.3 73.3;" xml:space="preserve">
<g>
	
		<line style="fill:none;stroke:#1E1E1E;stroke-width:5.0121;stroke-linecap:round;stroke-linejoin:round;stroke-miterlimit:10;" x1="2.8" y1="70.5" x2="142.6" y2="70.5"/>
	
		<path style="fill:#1E1E1E;stroke:#1E1E1E;stroke-width:0.1978;stroke-linecap:round;stroke-linejoin:round;stroke-miterlimit:10;" d="
		M30.2,39.8c0,0-8.7,18.4,1.8,31.5c1.5,1.9,79,2,80.5,0.2c10.9-13.2,2.7-31.7,2.7-31.7s3.1-24.8-6-36.4c0,0-7.3-1.8-25.9,10.8
		c0,0-12.9-2.1-21.6,0c0,0-20.3-11.3-26.1-11C35.7,3.2,28.3,15.4,30.2,39.8z"/>
	
		<path style="fill:#B7B7B7;stroke:#B7B7B7;stroke-width:0.2638;stroke-linecap:round;stroke-linejoin:round;stroke-miterlimit:10;" d="
		M40.6,29.3c0,0,11-8.1,14-9c0,0-8-5.4-12-5.7C42.6,14.6,40.5,15.1,40.6,29.3z"/>
	
		<path style="fill:#B7B7B7;stroke:#B7B7B7;stroke-width:0.2638;stroke-linecap:round;stroke-linejoin:round;stroke-miterlimit:10;" d="
		M109.5,29.3c0,0-11-8.1-14-9c0,0,7.7-5.7,11.6-6C107.1,14.2,109.7,15.1,109.5,29.3z"/>
	
		<polygon style="fill:none;stroke:#B7B7B7;stroke-width:5.0121;stroke-linecap:round;stroke-linejoin:round;stroke-miterlimit:10;" points="
		78,62.4 68.2,62.7 73.1,66.8 	"/>
	<ellipse style="fill:#FFFFFF;" cx="54.2" cy="52.2" rx="7.7" ry="5.7"/>
	<ellipse style="fill:#FFFFFF;" cx="95.5" cy="52.2" rx="7.7" ry="5.7"/>
	<circle cx="95.2" cy="52.2" r="4"/>
	<circle style="fill:#FFFFFF;" cx="97.5" cy="50.5" r="2.3"/>
	<circle cx="54.7" cy="52.2" r="4"/>
	<circle style="fill:#FFFFFF;" cx="57" cy="50.5" r="2.3"/>
</g>
</svg>
