<?xml version="1.0" encoding="utf-8"?>
<!-- Generator: Adobe Illustrator 21.0.0, SVG Export Plug-In . SVG Version: 6.00 Build 0)  -->
<svg version="1.1" id="Capa_1" xmlns="http://www.w3.org/2000/svg" xmlns:xlink="http://www.w3.org/1999/xlink" x="0px" y="0px"
	 viewBox="0 0 145.3 73.3" style="enable-background:new 0 0 145.3 73.3;" xml:space="preserve">
<g>
	
		<line style="fill:none;stroke:#1E1E1E;stroke-width:5.0121;stroke-linecap:round;stroke-linejoin:round;stroke-miterlimit:10;" x1="2.8" y1="70.5" x2="142.6" y2="70.5"/>
	
		<path style="fill:#1E1E1E;stroke:#1E1E1E;stroke-width:0.1978;stroke-linecap:round;stroke-linejoin:round;stroke-miterlimit:10;" d="
		M30.2,39.8c0,0-8.7,18.4,1.8,31.5c1.5,1.9,79,2,80.5,0.2c10.9-13.2,2.7-31.7,2.7-31.7s6.6-21.8-2.4-33.4c0,0-1.3-2.1-29.5,7.8
		c0,0-12.9-2.1-21.6,0c0,0-23.3-8.3-29.1-8C32.7,6.2,28.4,15.4,30.2,39.8z"/>
	
		<path style="fill:#B7B7B7;stroke:#B7B7B7;stroke-width:0.2638;stroke-linecap:round;stroke-linejoin:round;stroke-miterlimit:10;" d="
		M38.3,31.6c0,0,9.9-9.4,12.8-10.7c0,0-8.6-4.3-12.6-4.2C38.6,16.7,36.5,17.5,38.3,31.6z"/>
	
		<path style="fill:#B7B7B7;stroke:#B7B7B7;stroke-width:0.2638;stroke-linecap:round;stroke-linejoin:round;stroke-miterlimit:10;" d="
		M109.1,31c0,0-9.7-9.6-12.6-10.9c0,0,8.4-4.5,12.4-4.3C108.9,15.7,111.3,17,109.1,31z"/>
	
		<polygon style="fill:none;stroke:#B7B7B7;stroke-width:5.0121;stroke-linecap:round;stroke-linejoin:round;stroke-miterlimit:10;" points="
		78,62.4 68.2,62.7 73.1,66.8 	"/>
	<ellipse style="fill:#FFFFFF;" cx="54.2" cy="52.2" rx="7.7" ry="2.9"/>
	<ellipse style="fill:#FFFFFF;" cx="95.5" cy="52.2" rx="7.7" ry="2.9"/>
	<path d="M99.2,52.2c0,0.9-0.4,1.8-1.1,2.4c-0.7,0.7-5.2,0.7-6-0.1c-0.6-0.6-0.9-1.4-0.9-2.3c0-0.9,0.4-1.7,0.9-2.3
		c0.7-0.8,5.2-0.8,6-0.1C98.8,50.4,99.2,51.2,99.2,52.2z"/>
	<ellipse style="fill:#FFFFFF;" cx="97.5" cy="50.5" rx="2.3" ry="0.9"/>
	<path d="M58.7,52.2c0,0.9-0.3,1.7-0.9,2.3c-0.7,0.8-5.3,0.9-6,0.2s-1.1-1.5-1.1-2.5s0.4-1.8,1.1-2.5s5.2-0.6,6,0.2
		C58.4,50.5,58.7,51.3,58.7,52.2z"/>
	<ellipse style="fill:#FFFFFF;" cx="57" cy="50.5" rx="2.3" ry="0.9"/>
</g>
</svg>
