<?xml version="1.0" encoding="utf-8"?>
<!-- Generator: Adobe Illustrator 21.0.0, SVG Export Plug-In . SVG Version: 6.00 Build 0)  -->
<svg version="1.1" id="Capa_1" xmlns="http://www.w3.org/2000/svg" xmlns:xlink="http://www.w3.org/1999/xlink" x="0px" y="0px"
	 viewBox="0 0 145.3 73.3" style="enable-background:new 0 0 145.3 73.3;" xml:space="preserve">
<g>
	
		<line style="fill:none;stroke:#1E1E1E;stroke-width:5.0121;stroke-linecap:round;stroke-linejoin:round;stroke-miterlimit:10;" x1="2.8" y1="70.5" x2="142.6" y2="70.5"/>
	
		<path style="fill:#1E1E1E;stroke:#1E1E1E;stroke-width:0.1978;stroke-linecap:round;stroke-linejoin:round;stroke-miterlimit:10;" d="
		M30.2,39.8c0,0-8.7,18.4,1.8,31.5c1.5,1.9,79,2,80.5,0.2c11-13.2,2.8-31.7,2.8-31.7s0.3-27.5-8.7-39.1c0,0-0.4-4.1-23.2,13.5
		c0,0-12.9-2.1-21.6,0c0,0-17.3-14.3-23.2-14C38.6,0.3,28.3,15.4,30.2,39.8z"/>
	
		<path style="fill:#B7B7B7;stroke:#B7B7B7;stroke-width:0.2638;stroke-linecap:round;stroke-linejoin:round;stroke-miterlimit:10;" d="
		M40.6,29.3c0,0,11-8.1,14-9c0,0-5.1-8.3-9.1-8.7C45.6,11.6,40.5,15.1,40.6,29.3z"/>
	
		<path style="fill:#B7B7B7;stroke:#B7B7B7;stroke-width:0.2638;stroke-linecap:round;stroke-linejoin:round;stroke-miterlimit:10;" d="
		M109.5,29.3c0,0-11-8.1-14-9c0,0,5.1-8.3,9.1-8.7C104.5,11.6,109.6,15.1,109.5,29.3z"/>
	
		<polygon style="fill:none;stroke:#B7B7B7;stroke-width:5.0121;stroke-linecap:round;stroke-linejoin:round;stroke-miterlimit:10;" points="
		78,62.4 68.1,62.7 73,66.8 	"/>
	<circle style="fill:#FFFFFF;" cx="54.2" cy="52.2" r="7.7"/>
	<circle style="fill:#FFFFFF;" cx="95.5" cy="52.2" r="7.7"/>
	<circle cx="95.1" cy="52.2" r="4"/>
	<circle style="fill:#FFFFFF;" cx="97.5" cy="50.5" r="2.3"/>
	<circle cx="54.7" cy="52.2" r="4"/>
	<circle style="fill:#FFFFFF;" cx="56.9" cy="50.5" r="2.3"/>
</g>
</svg>
