<?xml version="1.0" encoding="utf-8"?>
<!-- Generator: Adobe Illustrator 21.0.0, SVG Export Plug-In . SVG Version: 6.00 Build 0)  -->
<svg version="1.1" id="Capa_1" xmlns="http://www.w3.org/2000/svg" xmlns:xlink="http://www.w3.org/1999/xlink" x="0px" y="0px"
	 viewBox="0 0 106.8 114" style="enable-background:new 0 0 106.8 114;" xml:space="preserve">
<path style="fill:#1A1A1A;" d="M32.7,14.3c0,0-31,0-31,42.9c0,42.1,29.5,41.9,29.5,41.9s13.2,16.3,29.9,12.4
	c16.2-3.8,14.7-17.1,14.7-17.1s20.5-5.5,21.3-19.9c0.8-14-4.7-19.4-4.7-19.4s4.8-14.3,2.8-20.1C91.8,25.3,77.5,21,77.5,21
	s0.7-9.2-6.2-14C53.6-5.5,32.7,14.3,32.7,14.3z"/>
<image style="display:none;overflow:visible;" width="1982" height="2207" xlink:href="E431DF43.jpg"  transform="matrix(0.24 0 0 0.24 52.7995 74.8359)">
</image>
<ellipse transform="matrix(0.8048 -0.5936 0.5936 0.8048 9.4495 43.19)" style="fill:#333333;" cx="70.4" cy="7.2" rx="8.1" ry="2.8"/>
<ellipse transform="matrix(0.9797 -0.2003 0.2003 0.9797 -5.1529 19.8025)" style="fill:#333333;" cx="95.3" cy="35.4" rx="8.1" ry="2.8"/>
<ellipse transform="matrix(0.3211 -0.947 0.947 0.3211 -6.7636 140.1988)" style="fill:#333333;" cx="94.4" cy="74.8" rx="2.8" ry="8.1"/>
<ellipse transform="matrix(0.6168 -0.7871 0.7871 0.6168 -54.199 94.3465)" style="fill:#333333;" cx="69.8" cy="102.8" rx="2.8" ry="8.1"/>
<ellipse transform="matrix(0.7071 -0.7071 0.7071 0.7071 -3.7159 45.2976)" style="fill:#333333;" cx="52.8" cy="27.1" rx="9.9" ry="8"/>
<ellipse transform="matrix(0.9196 -0.3928 0.3928 0.9196 -10.4258 32.2646)" style="fill:#333333;" cx="73.6" cy="41.6" rx="8.9" ry="8"/>
<ellipse transform="matrix(0.1966 -0.9805 0.9805 0.1966 -7.3421 126.7704)" style="fill:#333333;" cx="73.7" cy="67.9" rx="8" ry="9"/>
<ellipse transform="matrix(0.5551 -0.8318 0.8318 0.5551 -50.3161 84.2175)" style="fill:#333333;" cx="53.6" cy="89.1" rx="8" ry="9"/>
<path style="fill:#B3B3B3;" d="M60.9,53.8c0,0,1.9,1.4,1.8,3.7c-0.1,2.3-1.8,3.3-1.8,3.3l-28,20.6c0,0-6.7,4.3-8.2-1
	c-1.5-5.2-0.4-14.2,0.5-15.6c1-1.4,3.5-2,4.7-3.9c1.2-1.9,1.6-5.4-0.1-7s-3.1-1-4.4-2.6c-1.3-1.6-2.6-12.5,0-17s8.2-0.6,8.2-0.6
	L60.9,53.8z"/>
</svg>
