<?xml version="1.0" encoding="utf-8"?>
<!-- Generator: Adobe Illustrator 21.0.0, SVG Export Plug-In . SVG Version: 6.00 Build 0)  -->
<svg version="1.1" id="svg" xmlns="http://www.w3.org/2000/svg" xmlns:xlink="http://www.w3.org/1999/xlink" x="0px" y="0px"
	 viewBox="0 0 68.8 77.8" style="enable-background:new 0 0 68.8 77.8;" xml:space="preserve">
<g id="cat_x5F_loading">
	<g>
		<path d="M31.5,4.5c0,0,3.7,2.1,3.7,6.7c0,0,3.8,2.6,3.9,5c0,0,2.6-1.7,6.1,0.2c0,0,0.8,2.8-0.1,5L44.8,24l-2,9.7
			c0,0,5.2-1.1,4.1,3.1c0,0-1,8.9-12.3,7.4c0,0-6.4-0.4-5.8,2.9c0,0-1.2,1.6,6.2,0c0,0,5.6-0.5,5.2,1.2c0,0-5.4,1.7-6.7,4
			c0,0-2,0.3-6.4,9.3c0,0,13.4-0.9,13.2,8.3l-3.9,0.6c0,0-27,1.3-33-26.4c-2-9.1,1.4-17.7,5.9-24C15,12.1,22.8,10,22.8,10
			s4.3-3,5.8-3.9C30.4,5,31.5,4.5,31.5,4.5z"/>
		<path style="fill:none;stroke:#FFFFFF;stroke-width:2;stroke-miterlimit:10;" d="M37.2,69.9c0,0-27.8,1.9-33.7-25.8
			c-2-9.1,1.4-17.7,5.9-24c5.7-8,13.5-10.1,13.5-10.1s4.3-3,5.8-3.9c1.8-1.1,2.9-1.6,2.9-1.6s3.7,2.1,3.7,6.7"/>
		<path style="fill:none;stroke:#FFFFFF;stroke-width:1.5;stroke-linecap:round;stroke-miterlimit:10;" d="M25.8,19
			c0,0,0.2,0.9,0.7,1.4c0.4,0.4,1.5,0.4,1.5,0.4"/>
		<path style="fill:none;stroke:#FFFFFF;stroke-width:1.5;stroke-linecap:round;stroke-miterlimit:10;" d="M33.6,25.4
			c0,0,0.2,0.9,0.7,1.4c0.4,0.4,1.5,0.4,1.5,0.4"/>
		<path style="fill:none;stroke:#FFFFFF;stroke-width:1.5;stroke-linecap:round;stroke-linejoin:round;stroke-miterlimit:10;" d="
			M25.7,24.1c0,0,0.3,1.2,1.2,1.5c1.1,0.4,2.4-0.5,2.4-0.5l0.1-1.4l1.3,1.1l-1.5,0.3c0,0-0.8,1.9,0.3,2.7c0.5,0.3,1.4,0.3,1.4,0.3"
			/>
	</g>
	<g>
		<path style="fill:#FFFFFF;" d="M65.3,47.2C62.9,59.1,51.4,66,51.4,66s-3.8,3.2-5.4,4.3c-3.5,2.4-6.1,3.6-6.1,3.6s-3.7-2.1-3.7-6.7
			c0,0-3.6-1.7-3.7-5.2c0,0-3.2,1.3-6.3,0c0,0,0-2.6,1.7-4.9c2.2-3,3.4-7.2,10-9.7c0,0-2.9-0.2-6.2,1.1c-3.3,1.3-4.2-0.7-4.3-1.9
			c-0.1-1.1,0.3-2.8,3.6-4.3s8.2,0.3,11.6-1.2s3.5-4.2,3-5c-0.5-0.9-2.5-2.2-6.7,0c-4.5,2.4-5.4-0.2-5.4-0.2s12.6-5.6,11.7-19.4
			c0,0-2-1.5-6.1-0.2c0,0-0.1-1.2-1.7-3c-1.7-1.9-2.2-2.1-2.2-2.1s-0.1-2.4-1-4c0,0,11.3-0.2,21.5,8.3C64.9,23.3,67.5,36,65.3,47.2z
			"/>
		<path style="fill:none;stroke:#000000;stroke-width:2;stroke-miterlimit:10;" d="M35.2,7.5c0,0,0.3-0.2,1.1-0.2
			c3,0.2,11.2,1.5,19.3,8.3c9.2,7.7,11.9,20.5,9.6,31.6C62.8,59.1,51.3,66,51.3,66s-3.8,3.2-5.4,4.3c-3.5,2.4-6.1,3.6-6.1,3.6
			s-4-2.1-4-6.7"/>
		<path style="fill:#FFFFFF;stroke:#000000;stroke-width:2;stroke-linejoin:round;stroke-miterlimit:10;" d="M38.9,36"/>
		
			<path style="fill:#FFFFFF;stroke:#000000;stroke-width:1.5;stroke-linecap:round;stroke-linejoin:round;stroke-miterlimit:10;" d="
			M45,61.5c0,0-0.2-0.9-0.7-1.4c-0.4-0.4-1.5-0.4-1.5-0.4"/>
		
			<path style="fill:#FFFFFF;stroke:#000000;stroke-width:1.5;stroke-linecap:round;stroke-linejoin:round;stroke-miterlimit:10;" d="
			M37.2,55.1c0,0-0.2-0.9-0.7-1.4c-0.4-0.4-1.5-0.4-1.5-0.4"/>
		
			<path style="fill:#FFFFFF;stroke:#000000;stroke-width:1.5;stroke-linecap:round;stroke-linejoin:round;stroke-miterlimit:10;" d="
			M45.2,56.3c0,0-0.3-1.2-1.2-1.5c-1.1-0.4-2.4,0.5-2.4,0.5l-0.1,1.4l-1.3-1.1l1.5-0.3c0,0,0.8-1.9-0.3-2.7
			c-0.5-0.3-1.4-0.3-1.4-0.3"/>
	</g>
</g>
</svg>
