<?xml version="1.0" encoding="utf-8"?>
<!-- Generator: Adobe Illustrator 21.0.0, SVG Export Plug-In . SVG Version: 6.00 Build 0)  -->
<svg version="1.1" id="Capa_1" xmlns="http://www.w3.org/2000/svg" xmlns:xlink="http://www.w3.org/1999/xlink" x="0px" y="0px"
	 viewBox="0 0 106.8 96.9" style="enable-background:new 0 0 106.8 96.9;" xml:space="preserve">
<image style="display:none;overflow:visible;enable-background:new    ;" width="1988" height="2213" xlink:href="E431DF43.jpg"  transform="matrix(0.2393 0 0 0.2393 52.759 74.8723)">
</image>
<path style="fill:#F24040;stroke:#AD0404;stroke-width:2;stroke-miterlimit:10;" d="M7.3,45.8c0,0-23.1,48.6,46.3,48.6
	c67.8,0,46.4-48.6,46.4-48.6s0.4-29.9-9.5-42.5c0,0-0.4-4.5-25.3,14.7c0,0-14.1-2.3-23.5,0c0,0-18.9-15.5-25.2-15.2
	C16.5,2.8,5.2,19.2,7.3,45.8z"/>
<path style="fill:#750000;stroke:#750000;stroke-linecap:round;stroke-linejoin:round;stroke-miterlimit:10;" d="M15.9,33.4
	c0,0,12-8.8,15.3-9.8c0,0-5.6-9.1-9.9-9.4C21.3,14.2,15.8,18,15.9,33.4z"/>
<path style="fill:#750000;stroke:#750000;stroke-linecap:round;stroke-linejoin:round;stroke-miterlimit:10;" d="M91,33.4
	c0,0-12-8.8-15.3-9.8c0,0,5.6-9.1,9.9-9.4C85.6,14.2,91.1,18,91,33.4z"/>
<path style="fill:none;stroke:#750000;stroke-width:2;stroke-linecap:round;stroke-linejoin:round;stroke-miterlimit:10;" d="
	M45.4,72.9c0,0,1,3.6,4.1,3c3-0.6,4-4.3,4-4.3l-3-1.6l5.6-0.2l-2.6,1.8c0,0,0.3,3.7,3.8,4.2c3.4,0.5,4.1-2.5,4.1-2.5"/>
<polyline style="fill:none;stroke:#750000;stroke-width:4;stroke-linecap:round;stroke-linejoin:round;stroke-miterlimit:10;" points="
	30.7,50.3 39.1,58.7 30.7,67.1 "/>
<polyline style="fill:none;stroke:#750000;stroke-width:4;stroke-linecap:round;stroke-linejoin:round;stroke-miterlimit:10;" points="
	76.6,50.6 68.2,59 76.6,67.4 "/>
</svg>
