<?xml version="1.0" encoding="utf-8"?>
<!-- Generator: Adobe Illustrator 21.0.0, SVG Export Plug-In . SVG Version: 6.00 Build 0)  -->
<svg version="1.1" id="Capa_1" xmlns="http://www.w3.org/2000/svg" xmlns:xlink="http://www.w3.org/1999/xlink" x="0px" y="0px"
	 viewBox="0 0 106.8 114" style="enable-background:new 0 0 106.8 114;" xml:space="preserve">
<path style="fill:#1A1A1A;" d="M72.3,14.3c0,0,31,0,31,42.9c0,42.1-29.5,41.9-29.5,41.9s-13.2,16.3-29.9,12.4
	c-16.2-3.8-14.7-17.1-14.7-17.1S8.7,88.9,7.8,74.5c-0.8-14,4.7-19.4,4.7-19.4S7.7,40.8,9.7,35.1C13.2,25.3,27.5,21,27.5,21
	s-0.7-9.2,6.2-14C51.4-5.5,72.3,14.3,72.3,14.3z"/>
<image style="display:none;overflow:visible;" width="1982" height="2207" xlink:href="5A1E5761.jpg"  transform="matrix(0.24 0 0 0.24 52.7995 74.8359)">
</image>
<ellipse transform="matrix(0.5936 -0.8048 0.8048 0.5936 8.2506 30.797)" style="fill:#333333;" cx="34.6" cy="7.2" rx="2.8" ry="8.1"/>
<ellipse transform="matrix(0.2003 -0.9797 0.9797 0.2003 -26.857 37.8156)" style="fill:#333333;" cx="9.7" cy="35.4" rx="2.8" ry="8.1"/>
<ellipse transform="matrix(0.947 -0.3211 0.3211 0.947 -23.466 7.3641)" style="fill:#333333;" cx="10.6" cy="74.8" rx="8.1" ry="2.8"/>
<ellipse transform="matrix(0.7871 -0.6168 0.6168 0.7871 -55.9398 43.6057)" style="fill:#333333;" cx="35.2" cy="102.8" rx="8.1" ry="2.8"/>
<ellipse transform="matrix(0.7071 -0.7071 0.7071 0.7071 -3.904 44.8435)" style="fill:#333333;" cx="52.2" cy="27.1" rx="8" ry="9.9"/>
<ellipse transform="matrix(0.3928 -0.9196 0.9196 0.3928 -19.2081 54.1194)" style="fill:#333333;" cx="31.4" cy="41.6" rx="8" ry="8.9"/>
<ellipse transform="matrix(0.9805 -0.1966 0.1966 0.9805 -12.7338 7.4821)" style="fill:#333333;" cx="31.3" cy="67.9" rx="9" ry="8"/>
<ellipse transform="matrix(0.8318 -0.5551 0.5551 0.8318 -40.8293 43.5437)" style="fill:#333333;" cx="51.4" cy="89.1" rx="9" ry="8"/>
<path style="fill:#B3B3B3;" d="M44.1,53.8c0,0-1.9,1.4-1.8,3.7c0.1,2.3,1.8,3.3,1.8,3.3l28,20.6c0,0,6.7,4.3,8.2-1
	c1.5-5.2,0.4-14.2-0.5-15.6c-1-1.4-3.5-2-4.7-3.9c-1.2-1.9-1.6-5.4,0.1-7c1.7-1.6,3.1-1,4.4-2.6c1.3-1.6,2.6-12.5,0-17
	c-2.6-4.5-8.2-0.6-8.2-0.6L44.1,53.8z"/>
</svg>
